<svg width="846" height="178" viewBox="0 0 846 178" fill="none" xmlns="http://www.w3.org/2000/svg">
<path d="M1.24144 3.17236C13.9954 2.77636 27.6497 3.05011 40.4641 3.05111L110.494 3.05287L325.265 3.05336C325.202 13.4556 325.626 24.2454 325.437 34.7046C325.35 39.5174 325.576 44.4424 325.281 49.2614L303.753 49.3916C300.673 49.4391 296.432 49.4086 293.428 49.7564C290.906 57.0314 289.461 63.6594 287.4 71.0486L281.63 91.8419C280.802 94.7511 279.789 97.6549 279.009 100.547C277.435 106.384 276.161 112.256 274.292 117.994C272.644 124.31 270.748 130.784 268.916 137.135C266.62 145.08 265.329 153.562 261.095 160.465C256.997 167.147 250.065 172.74 243.041 174.331C240.615 174.88 235.085 174.756 232.431 174.739L219.944 174.699L161.719 174.739L110.686 174.702C105.525 174.662 100.365 174.663 95.204 174.703C85.3312 174.776 79.5711 175.486 71.1497 168.314C62.4321 160.889 60.6542 151.542 57.5711 140.349C54.9338 130.776 52.117 121.287 49.4491 111.73C47.5996 104.86 46.2277 97.9099 43.9111 91.1796C40.9749 81.2779 38.3007 71.1024 35.6578 61.0981C34.6863 57.4211 33.179 53.3079 32.7032 49.5969C22.488 48.5346 10.2877 50.1054 0.178019 49.0779C0.0836759 44.9151 -0.278698 4.66712 0.420181 3.32012L1.24144 3.17236Z" fill="#FFF8F0"/>
<path d="M204.936 50.3064C220.15 50.37 237.46 50.7611 252.486 50.3485C252.374 65.0701 250.133 74.9195 244.235 88.3274C240.835 96.3009 232.327 107.94 225.908 113.963C208.491 130.302 187.223 139.151 163.31 139.288C139.487 139.65 116.508 130.587 99.5055 114.121C84.7235 99.922 75.3295 81.1487 72.8936 60.9382C72.4893 57.3043 72.5035 53.942 72.486 50.2981C88.1581 51.0524 104.787 50.0334 120.475 50.5623C120.429 61.356 123.06 68.7691 129.736 77.1047C147.82 99.6829 184.561 96.4859 199.022 71.7326C203.205 64.575 204.181 58.3973 204.936 50.3064Z" fill="#6D4530"/>
<path d="M380.673 4.25956e-05C386.523 4.25956e-05 391.676 1.25356 396.133 3.76058C400.63 6.22781 404.39 9.98835 407.414 15.0422C410.439 20.096 412.707 26.4432 414.219 34.0837C415.771 41.7241 416.547 50.6977 416.547 61.0044H397.864C397.864 53.4037 397.526 46.8974 396.849 41.4854C396.173 36.0734 395.138 31.6562 393.745 28.2339C392.352 24.7719 390.621 22.2449 388.552 20.6532C386.483 19.0216 384.035 18.2058 381.21 18.2058C379.021 18.2058 376.992 18.6834 375.122 19.6384C373.291 20.5935 371.699 22.0261 370.346 23.9362C369.033 25.8065 367.998 28.1344 367.242 30.92C366.526 33.6658 366.168 36.8295 366.168 40.4109C366.168 45.027 366.745 49.1855 367.899 52.8864C369.093 56.5474 370.605 59.8503 372.435 62.7951C374.266 65.7001 376.295 68.3066 378.524 70.6146C380.792 72.8829 383.001 74.9522 385.15 76.8225L389.626 80.7621C391.855 82.712 394.123 84.7614 396.431 86.9103C398.739 89.0592 400.968 91.3672 403.117 93.8345C405.305 96.3017 407.355 98.9679 409.265 101.833C411.175 104.698 412.826 107.842 414.219 111.264C415.652 114.687 416.766 118.407 417.562 122.427C418.398 126.406 418.815 130.783 418.815 135.559C418.815 142.324 417.96 148.332 416.249 153.585C414.538 158.838 412.09 163.275 408.907 166.896C405.723 170.478 401.863 173.204 397.327 175.074C392.83 176.944 387.796 177.88 382.225 177.88C375.858 177.88 370.267 176.626 365.452 174.119C360.637 171.572 356.597 167.712 353.334 162.539C350.111 157.366 347.684 150.859 346.052 143.02C344.42 135.181 343.605 125.948 343.605 115.323H362.228C362.228 122.924 362.646 129.51 363.482 135.081C364.357 140.652 365.611 145.268 367.242 148.929C368.874 152.551 370.903 155.257 373.331 157.047C375.758 158.798 378.544 159.674 381.688 159.674C384.195 159.674 386.503 159.137 388.612 158.062C390.761 156.948 392.611 155.356 394.163 153.287C395.755 151.178 396.988 148.611 397.864 145.587C398.739 142.523 399.177 139.041 399.177 135.141C399.177 130.485 398.56 126.267 397.327 122.486C396.093 118.706 394.461 115.244 392.432 112.1C390.442 108.916 388.154 106.011 385.568 103.385C383.021 100.759 380.434 98.2715 377.808 95.9237L373.271 91.805C371.401 90.1336 369.431 88.323 367.362 86.3731C365.292 84.3834 363.263 82.2146 361.273 79.8668C359.323 77.5189 357.453 74.9721 355.662 72.2263C353.911 69.4805 352.359 66.476 351.006 63.2129C349.653 59.9498 348.579 56.4081 347.783 52.5879C346.987 48.7677 346.589 44.6291 346.589 40.1722C346.589 33.8449 347.405 28.1941 349.037 23.2199C350.668 18.2456 352.976 14.0473 355.961 10.6251C358.945 7.16297 362.527 4.53656 366.705 2.74583C370.883 0.915306 375.539 4.25956e-05 380.673 4.25956e-05ZM482.386 3.58151V22.2051H445.736V78.7326H478.805V96.9384H445.676L445.736 155.615H483.58V174.298H425.68V3.58151H482.386ZM512.833 22.2051V92.76H523.458C532.491 92.76 539.236 89.8352 543.693 83.9854C548.15 78.1357 550.378 69.2417 550.378 57.3035C550.378 33.9046 541.544 22.2051 523.876 22.2051H512.833ZM492.776 3.58151H523.338C530.581 3.58151 537.067 4.83502 542.798 7.34204C548.568 9.80928 553.462 13.3709 557.482 18.0268C561.501 22.6827 564.565 28.3533 566.674 35.0387C568.823 41.7241 569.897 49.285 569.897 57.7213C569.897 66.0383 568.863 73.5196 566.793 80.1652C564.724 86.771 561.76 92.4019 557.899 97.0578C554.079 101.674 549.403 105.216 543.872 107.683C538.38 110.15 532.173 111.384 525.248 111.384H512.833V174.298H492.776V3.58151ZM635.466 3.58151V22.2051H598.816V78.7326H631.885V96.9384H598.756L598.816 155.615H636.66V174.298H578.76V3.58151H635.466ZM715.934 22.2051H689.729V174.298H669.673V22.2648L643.469 22.2051V3.58151H715.934V22.2051ZM744.201 174.298H724.145V3.58151H744.201V174.298ZM773.133 87.1491C773.133 109.593 775.122 126.625 779.102 138.245C783.121 149.825 788.991 155.615 796.711 155.615C804.431 155.615 810.28 149.825 814.26 138.245C818.279 126.625 820.289 109.593 820.289 87.1491C820.289 64.7052 818.279 47.6733 814.26 36.0535C810.28 24.4336 804.431 18.6237 796.711 18.6237C788.991 18.6237 783.121 24.4336 779.102 36.0535C775.122 47.6733 773.133 64.7052 773.133 87.1491ZM753.076 87.1491C753.076 72.9028 754.012 60.3478 755.882 49.484C757.752 38.6202 760.518 29.5272 764.179 22.2051C767.88 14.883 772.436 9.35165 777.848 5.611C783.3 1.87036 789.587 4.25956e-05 796.711 4.25956e-05C803.794 4.25956e-05 810.042 1.83057 815.454 5.49163C820.905 9.11288 825.462 14.4652 829.123 21.5485C832.824 28.6319 835.609 37.4065 837.48 47.8723C839.39 58.2984 840.345 70.3162 840.345 83.9257C840.345 93.9539 839.847 103.126 838.852 111.443C837.858 119.76 836.385 127.082 834.435 133.41C832.485 139.697 830.058 144.93 827.153 149.108C824.288 153.247 820.985 156.172 817.244 157.883V158.48H841.24V174.298H796.711C789.587 174.298 783.3 172.428 777.848 168.687C772.436 164.946 767.88 159.415 764.179 152.093C760.518 144.771 757.752 135.678 755.882 124.814C754.012 113.95 753.076 101.395 753.076 87.1491Z" fill="#FFF8F0"/>
</svg>
