<svg xmlns="http://www.w3.org/2000/svg" viewBox="0 0 150 150" width="150" height="150" style="width: 256px; height: 256px">
  <path d="m76 54c-3.6 1.6-7.7 4.4-8.6 5.9s-1.6 6.1-0.7 11.3c0.7 5.3 1.5 16.7 3.2 19.6 1.4 2.7 4 2.2 13.1 1.5l13.7-0.7c4.5-0.3 6.3-0.4 9.2-2.2 4.4-2.6 7.3-4.5 8.1-6.1 0.5-0.8 0.8-1.7 0.9-2.8 0.3-3.4-0.5-10.1-2.1-24.5-1-7-6.3-6-12.3-5.6l-16.6 0.9c-4 0.1-5.3 1.4-7.9 2.7z" fill="#B89A78" />
  <path d="m28.3 26.2c3.3 1.4 4.1 3.2 5.8 7.5 1.4 3.4 2 9.4 4.7 17.3 1.6 5.3 4.2 13.3 5.6 19.5 1.6 7.3 3.4 13.8 6 21.5 1.1 3.3 1.8 8.3 1.8 8.3" fill="none" stroke="#F5E8DA" stroke-width="4" stroke-linecap="round" stroke-miterlimit="10" />
  <path d="m29.7 23c2.3 0 5.2 1.5 7 5.1 1.4 3 3.1 9.1 4.8 15.1" fill="none" stroke="#F5E8DA" stroke-width="3" stroke-linecap="round" stroke-miterlimit="10" />
  <path d="m29.7 22.7c-0.1-2.5-2.9-2.7-4.6-3-2.1-0.3-5.3-0.8-7.4-1.5s-3.8-1.8-5.9-0.6c-2.8 1.6-2.8 5.7 1.6 6.3 4.3 0.7 6.1 1.1 8.7 2.1 2.1 0.8 3.5 2 5.3 1.3 1.4-0.6 1.4-4.3 2.3-4.3z" fill="none" stroke="#F5E8DA" stroke-width="4" stroke-miterlimit="10" />
  <path d="m39.9 36.4c3.1-0.5 6.5 0.2 12.1 0.8 6.9 0.7 20.2 1.5 31.9 2.2 12.8 0.5 35.7 1.6 41.1 2.5 6.7 0.9 9 1.1 12.2 1.3 2.9 0.2 3.2 2 2.6 4.2-0.9 3.6-1.9 8.9-2.3 12.5-1.1 7.5-2.9 14.5-4.7 23.6-0.9 5.1-2 7.7-8.2 8.4l-45.2 4.5c-12.7 1.3-15.3 1.7-26.5 4-3.6 0.7-6.9 2-9.1 5.2-2.7 3.8-1.2 9.4 3.3 10.5 3.6 0.9 9.3 0.3 17.5 0.6 4.4 0 9.6-0.6 19.3-0.4 8.3 0.2 11.6 0.4 16.3 0.4 7.4 0 24.8-0.6 27-0.6" fill="none" stroke="#F5E8DA" stroke-width="4" stroke-linecap="round" stroke-miterlimit="10" />
  <path d="m56.9 38.4c2 8.5 2.6 20.6 5.2 32.6l2.9 12.5c1 4.6 2.4 12 2.2 14.5" fill="none" stroke="#F5E8DA" stroke-width="3" stroke-linecap="round" stroke-miterlimit="10" />
  <path d="m66.1 58h7.9c4.1 0 17.5 0.7 24.3 0.6l-0.4-0.2 11.1-8 0.1-0.2 0.5-1.3-1.6-0.2c-3.8 0-5.2 0.2-12.1 0.2h-13.4c-1 0-2.2 0-3.3 0.4l-10.2 5.7c-2.3 1.3-2.7 2-2.7 2.2l-0.2 0.8z" fill="none" stroke="#F5E8DA" stroke-width="2" stroke-linejoin="round" stroke-miterlimit="10" />
  <path d="m78.5 40.1c1.1 8.6 1.1 19.8 3.1 33.5l1.5 11c0.6 4 0.9 10.1 0.9 11.3m15.9-55.1c0.9 10 0.6 18.2 0.9 28.2l0.4 12.8c0.4 3.1-0.2 12.3-0.2 12.3m21-51.7c-0.6 5.5-0.3 10.6-1.5 19.5-1 8.6-2.6 18.6-2.7 30m-76.7-34.4 6.3 0.2h7.7l10.5 0.2 8.4 0.2" fill="none" stroke="#F5E8DA" stroke-width="4" stroke-linecap="round" stroke-miterlimit="10" />
  <path d="m47.4 81c7.6 0 15.6-0.5 19.7-0.7 7.1-0.4 15.9-0.9 26-1 8.6-0.1 16.8-0.4 24.7-0.9 7-0.1 11.2-1 15.7-0.8m-66.8-19.6c0.7 7.4 2.4 11.1 3.2 21.9l0.6 9.8c0 1.9 1.9 1.9 3.2 1.9l20.5-1.1 5.2-0.3c2.5-0.2 3.6-0.8 4.6-1.6l6.3-5.1c2.7-2.1 3.6-2.6 3.3-5-1.1-5.9-2.9-17.9-4-29.2" fill="none" stroke="#F5E8DA" stroke-width="3" stroke-linecap="round" stroke-miterlimit="10" />
  <path d="m58.1 117.6c-3.7 0.2-7.7 3.2-7.8 7.4 0 3.6 2.8 8.2 8.2 8.2 5.6 0.2 8.4-4.6 8.2-8.9-0.2-4.5-4.4-7.3-8.2-7.3v0.6zm55.6 0c-3.7 0.5-7.8 3.6-7.8 7.8 0 3.6 3.3 8 8.6 8 5.4 0.1 8-4 8.1-8.4 0-4.4-3.6-7.8-8.2-7.8l-0.7 0.4z" fill="none" stroke="#F5E8DA" stroke-width="6" stroke-linecap="round" stroke-miterlimit="10" />
  <path d="m66.3 58.1 31.4 0.5 2.6 0.2c2.7 0 14.5 1.1 28.3 1.1l8.4 0.3" fill="none" stroke="#F5E8DA" stroke-width="4" stroke-miterlimit="10" />
</svg>